<svg xmlns="http://www.w3.org/2000/svg" xmlns:xlink="http://www.w3.org/1999/xlink" width="500" zoomAndPan="magnify" viewBox="0 0 375 374.999991" height="500" preserveAspectRatio="xMidYMid meet" version="1.0"><defs><clipPath id="aa1e2b5993"><path d="M 37.5 36.679688 L 336.75 36.679688 L 336.75 263.945312 L 37.5 263.945312 Z M 37.5 36.679688 " clip-rule="nonzero"/></clipPath><clipPath id="05717df528"><path d="M 46.382812 225.792969 L 329.707031 225.792969 L 329.707031 337.417969 L 46.382812 337.417969 Z M 46.382812 225.792969 " clip-rule="nonzero"/></clipPath></defs><g clip-path="url(#aa1e2b5993)"><path fill="#ffffff" d="M 168.90625 182.171875 C 169.574219 184.210938 170.101562 186.3125 170.488281 188.464844 L 203.46875 186.617188 L 203.992188 201.585938 L 170.988281 201.804688 C 170.972656 201.945312 170.953125 202.078125 170.9375 202.21875 C 156.285156 198.476562 141.300781 195.675781 125.960938 195.675781 C 125.75 195.675781 125.53125 195.675781 125.320312 195.675781 C 108.675781 195.761719 92.292969 199.273438 77.195312 205.828125 C 77.148438 205.582031 77.09375 205.335938 77.050781 205.085938 L 44.109375 207.167969 L 43.585938 192.199219 L 76.617188 191.742188 C 76.765625 190.355469 76.976562 188.984375 77.242188 187.632812 L 59.523438 182.214844 L 63.367188 170.542969 L 80.789062 176.820312 C 81.792969 174.671875 82.957031 172.609375 84.265625 170.644531 L 58.976562 149.273438 L 68.894531 138.042969 L 93.144531 160.679688 C 94.808594 159.273438 96.570312 157.976562 98.421875 156.804688 L 90.285156 140.441406 L 101.410156 135.207031 L 108.710938 151.914062 C 110.863281 151.195312 113.082031 150.625 115.359375 150.21875 L 113.507812 117.25 L 128.484375 116.730469 L 128.707031 149.71875 C 130.175781 149.871094 131.625 150.085938 133.054688 150.367188 L 138.472656 132.660156 L 150.152344 136.5 L 143.871094 153.910156 C 145.882812 154.851562 147.820312 155.933594 149.667969 157.140625 L 171.222656 131.667969 L 182.457031 141.578125 L 159.714844 165.914062 C 161.324219 167.773438 162.789062 169.757812 164.097656 171.855469 L 180.570312 163.671875 L 185.808594 174.792969 Z M 316.132812 108.296875 C 289.652344 65.324219 242.144531 36.675781 187.949219 36.675781 C 104.859375 36.675781 37.5 104 37.5 187.046875 C 37.5 202.871094 39.949219 218.125 44.480469 232.453125 C 51.3125 226.308594 59.386719 221.980469 68.507812 219.363281 C 80.640625 215.878906 93.582031 215.269531 106.054688 217.046875 C 136.105469 221.328125 162.78125 236.875 190.515625 248.167969 C 204.214844 253.746094 219.152344 259.21875 233.574219 261.421875 C 243.035156 262.976562 252.507812 264.015625 262.113281 263.625 C 268.59375 263.363281 274.972656 262.574219 281.308594 261.195312 C 285.328125 260.316406 290.179688 259.113281 293.707031 257.496094 C 303.875 253.261719 313.222656 247.617188 321.007812 239.742188 C 323.410156 237.3125 325.574219 234.746094 327.53125 232.054688 C 332.386719 225.363281 335.523438 217.570312 336.742188 209.398438 C 336.746094 209.363281 336.75 209.328125 336.757812 209.296875 C 334.226562 213.722656 331.242188 217.882812 327.816406 221.679688 C 328.582031 220.839844 329.820312 219.507812 327.472656 222.066406 C 327.394531 222.144531 327.359375 222.183594 327.355469 222.1875 C 306.523438 244.152344 275.375 251.082031 245.957031 247.417969 C 224.167969 244.707031 203.503906 237.050781 183.105469 229.28125 C 162.699219 221.507812 141.734375 213.441406 119.921875 211.582031 C 95.214844 209.476562 71.21875 215.214844 49.066406 225.933594 C 70.472656 208.058594 97.386719 198.203125 125.332031 198.0625 C 156.683594 197.90625 186.21875 209.613281 216.105469 217.460938 C 228.058594 220.597656 239.988281 222.621094 252.265625 223.777344 C 252.234375 223.78125 252.207031 223.777344 252.183594 223.769531 C 267.648438 224.332031 283.742188 222.425781 297.273438 214.382812 C 312.25 205.480469 321.242188 189.710938 322.796875 172.410156 C 323.402344 165.667969 322.847656 158.820312 321.097656 152.273438 C 320.488281 149.996094 319.734375 147.734375 318.8125 145.5625 C 318.566406 144.984375 318.296875 144.417969 318.03125 143.851562 C 317.992188 143.769531 317.757812 143.269531 317.761719 143.261719 C 307.339844 123.238281 286.75 110.246094 264.253906 108.527344 C 244.226562 107 224.328125 115.664062 209.785156 129.328125 C 201.4375 137.171875 195.019531 146.585938 190.261719 156.964844 C 196.929688 121.632812 228.503906 93.449219 264.734375 92.230469 C 283.03125 91.613281 301.40625 97.464844 316.132812 108.296875 " fill-opacity="1" fill-rule="nonzero"/></g><g clip-path="url(#05717df528)"><path fill="#0cc0df" d="M 48.644531 242.316406 C 56.539062 241.351562 64.425781 241.148438 72.363281 241.425781 C 92.058594 242.117188 112.300781 247.730469 129.089844 257.964844 C 140.234375 264.753906 150.5 273.265625 162.761719 278.046875 C 174.128906 282.484375 186.9375 283.8125 198.09375 278.175781 C 185.453125 280.453125 173.300781 276.648438 162.644531 269.796875 C 152.679688 263.386719 144.109375 255.019531 134 248.816406 C 125.375 243.523438 116.089844 239.460938 106.28125 236.929688 C 86.675781 231.871094 65.664062 232.046875 46.476562 238.320312 C 46.023438 237.078125 57.96875 228.582031 65.164062 227.265625 C 105.773438 219.828125 141.523438 245.117188 176.828125 261.011719 C 176.785156 260.992188 176.820312 261.007812 176.976562 261.078125 C 180.5625 262.679688 178.246094 261.640625 177.222656 261.1875 C 192.46875 267.976562 208.320312 273.582031 224.753906 276.65625 C 246.96875 280.808594 271.085938 280.15625 292.039062 271.054688 C 307.644531 264.273438 321.367188 252.976562 329.394531 238.386719 C 308.402344 296.15625 252.996094 337.417969 187.949219 337.417969 C 124.414062 337.417969 70.078125 298.054688 48.019531 242.398438 C 48.230469 242.371094 48.4375 242.339844 48.644531 242.316406 " fill-opacity="1" fill-rule="nonzero"/></g></svg>